<?xml version="1.0" encoding="iso-8859-1"?>
<!DOCTYPE svg PUBLIC "-//W3C//DTD SVG 1.1//EN" "http://www.w3.org/Graphics/SVG/1.1/DTD/svg11.dtd">
<svg 
 version="1.1" xmlns="http://www.w3.org/2000/svg" xmlns:xlink="http://www.w3.org/1999/xlink" x="0px" y="0px" width="512px"
	 height="512px" viewBox="0 0 512 512" enable-background="new 0 0 512 512" xml:space="preserve"
><g id="1b1c9b208ed950244c86edd4d202e715"><g></g><path display="inline" d="M426.013,178.814C421.711,88.173,368.67,0.5,256,0.5C143.328,0.5,90.289,88.173,85.987,178.814
		c-18.096,10.391-30.38,29.88-30.38,52.137v220.432c0,33.064,27.053,60.117,60.118,60.117h280.549
		c33.064,0,60.118-27.053,60.118-60.117V230.951C456.393,208.694,444.11,189.205,426.013,178.814z M256,60.618
		c85.276,0,104.74,71.703,109.041,110.216H146.96C151.258,132.32,170.722,60.618,256,60.618z M306.098,401.284
		c0,11.021-9.018,20.039-20.039,20.039h-60.117c-11.022,0-20.04-9.018-20.04-20.039v-60.117c0-11.021,9.018-20.04,20.04-20.04
		v-40.078c0-11.021,9.018-20.039,20.039-20.039h20.039c11.021,0,20.039,9.018,20.039,20.039v40.078
		c11.021,0,20.039,9.019,20.039,20.04V401.284z"></path></g></svg>